<svg width="256" height="256" xmlns="http://www.w3.org/2000/svg"><path style="fill:#fff;stroke:none;stroke-width:3.99331" d="M0 0h256v256H0z"/><path style="fill:#fff;stroke:gray;stroke-width:4" d="M22.004 22.004H198.03v35.992H22.004z" transform="translate(18.572 19.878) scale(.8712)"/><text xml:space="preserve" style="font-size:21.4546px;fill:gray;stroke:none;stroke-width:10.7273" x="30.851" y="46.654" transform="matrix(.85602 0 0 .88665 18.572 19.878)"><tspan x="30.851" y="46.654" style="font-style:normal;font-variant:normal;font-weight:700;font-stretch:normal;font-family:Ubuntu;-inkscape-font-specification:'Ubuntu Bold';fill:gray;stroke:none;stroke-width:1.78788">COUNTRY</tspan></text><path style="fill:#fff;stroke:gray;stroke-width:4" d="M22.004 78.217H198.03v35.992H22.004z" transform="translate(18.572 19.878) scale(.8712)"/><text xml:space="preserve" style="font-size:21.4546px;fill:gray;stroke:#000;stroke-width:10.7273" x="30.851" y="101.887" transform="matrix(.85602 0 0 .88665 18.572 19.878)"><tspan x="30.851" y="101.887" style="font-style:normal;font-variant:normal;font-weight:700;font-stretch:normal;font-family:Ubuntu;-inkscape-font-specification:'Ubuntu Bold';fill:gray;stroke:none;stroke-width:1.78788">STATE</tspan></text><path style="fill:#fff;stroke:gray;stroke-width:4" d="M22.004 134.217H198.03v35.992H22.004z" transform="translate(18.572 19.878) scale(.8712)"/><text xml:space="preserve" style="font-size:21.4546px;fill:gray;stroke:#000;stroke-width:10.7273" x="30.851" y="156.911" transform="matrix(.85602 0 0 .88665 18.572 19.878)"><tspan x="30.851" y="156.911" style="font-style:normal;font-variant:normal;font-weight:700;font-stretch:normal;font-family:Ubuntu;-inkscape-font-specification:'Ubuntu Bold';fill:gray;stroke:none;stroke-width:1.78788">CITY</tspan></text><path style="fill:#fff;stroke:#155724;stroke-width:4" d="M22.004 190.217H198.03v35.992H22.004z" transform="translate(18.572 19.878) scale(.8712)"/><text xml:space="preserve" style="font-size:21.4546px;fill:#155724;stroke:#000;stroke-width:10.7273" x="30.851" y="211.935" transform="matrix(.85602 0 0 .88665 18.572 19.878)"><tspan x="30.851" y="211.935" style="font-style:normal;font-variant:normal;font-weight:700;font-stretch:normal;font-family:Ubuntu;-inkscape-font-specification:'Ubuntu Bold';fill:#155724;stroke:none;stroke-width:1.78788">POSTCODE</tspan></text><path d="m210.5 208.713 2-2 5 5 11-11 2 2-13 13z" style="fill:#155724;stroke:#155724" transform="translate(18.572 19.878) scale(.8712)"/><path d="m220.5 94.8-7.071-7.072-1.414 1.414 7.071 7.071-7.071 7.071 1.414 1.414 7.071-7.07 7.071 7.07 1.414-1.414-7.071-7.07 7.071-7.072-1.414-1.414zM220.5 150.8l-7.071-7.072-1.414 1.414 7.071 7.071-7.071 7.071 1.414 1.414 7.071-7.07 7.071 7.07 1.414-1.414-7.071-7.07 7.071-7.072-1.414-1.414zM220.5 38.586l-7.071-7.071-1.414 1.414L219.086 40l-7.071 7.071 1.414 1.414 7.071-7.071 7.071 7.071 1.414-1.414L221.914 40l7.071-7.071-1.414-1.414z" style="fill:gray;stroke:gray" transform="translate(18.572 19.878) scale(.8712)"/></svg>