<svg width="256" height="256" xmlns="http://www.w3.org/2000/svg"><path style="fill:#fff;stroke:none;stroke-width:3.99331" d="M0 0h256v256H0Z"/><path style="color:#000;fill:#fff;stroke-width:3.4848;-inkscape-stroke:none" d="M37.742 39.048h153.354v31.356H37.742Z"/><path style="color:#000;fill:gray;-inkscape-stroke:none" d="M36 37.305v34.841h156.838V37.305Zm3.484 3.486h149.87v27.871H39.484Z"/><g aria-label="COUNTRY" style="font-size:18.6913px;fill:gray;stroke-width:9.34563"><path d="M53.18 60.438q-3.158 0-4.822-1.757-1.645-1.757-1.645-4.99 0-1.608.505-2.86.505-1.271 1.383-2.13.879-.88 2.094-1.328 1.215-.449 2.635-.449.822 0 1.495.131.673.112 1.178.28.505.15.841.318.336.169.486.262l-.841 2.355q-.598-.318-1.402-.542-.785-.224-1.794-.224-.673 0-1.327.224-.636.224-1.14.73-.487.485-.786 1.27-.299.785-.299 1.907 0 .897.187 1.682.206.766.636 1.327.448.56 1.159.897.71.318 1.72.318.635 0 1.14-.075.504-.075.897-.168.392-.112.691-.243.3-.13.542-.243l.804 2.336q-.617.374-1.738.673-1.122.3-2.598.3zM61.367 53.69q0 .954.225 1.72.243.767.672 1.327.449.542 1.085.842.635.299 1.457.299.804 0 1.44-.3.654-.299 1.084-.84.448-.561.673-1.328.243-.766.243-1.72 0-.953-.243-1.719-.225-.785-.673-1.327-.43-.56-1.084-.86-.636-.299-1.44-.299-.822 0-1.457.318-.636.299-1.085.86-.43.542-.672 1.327-.225.766-.225 1.7zm9.888 0q0 1.664-.505 2.935-.486 1.253-1.345 2.112-.86.841-2.057 1.271-1.177.43-2.542.43-1.327 0-2.504-.43-1.178-.43-2.056-1.27-.879-.86-1.383-2.113-.505-1.27-.505-2.934 0-1.664.523-2.916.524-1.271 1.402-2.13.897-.86 2.056-1.29 1.178-.43 2.467-.43 1.328 0 2.505.43 1.178.43 2.056 1.29.879.859 1.383 2.13.505 1.252.505 2.916zM78.75 60.438q-1.364 0-2.355-.374-.99-.392-1.645-1.065-.635-.692-.953-1.626-.3-.953-.3-2.094v-8.055h2.917v7.813q0 .785.168 1.345.187.542.486.897.318.337.748.486.448.15.972.15 1.065 0 1.72-.654.672-.654.672-2.224v-7.813h2.916v8.055q0 1.14-.318 2.094-.318.953-.972 1.645-.654.673-1.663 1.046-1.01.374-2.393.374zM95.591 60.177q-1.252-2.225-2.71-4.393-1.458-2.168-3.103-4.093v8.486H86.9V47.224h2.373q.617.616 1.365 1.514.747.897 1.514 1.925.785 1.01 1.551 2.112.766 1.084 1.44 2.093v-7.644h2.897v12.953zM110.637 47.224v2.485h-3.906v10.468h-2.916V49.709H99.91v-2.485zM116.3 47.074q2.917 0 4.468 1.047 1.551 1.028 1.551 3.215 0 1.364-.635 2.224-.617.841-1.794 1.327.392.486.822 1.121.43.617.841 1.309.43.673.823 1.42.392.73.729 1.44h-3.271q-.356-.636-.73-1.29-.355-.654-.747-1.271-.374-.617-.748-1.159-.374-.56-.747-1.01h-1.44v4.73h-2.915V47.41q.953-.186 1.962-.261 1.028-.075 1.832-.075zm.17 2.486q-.319 0-.58.019-.243.018-.468.037v3.514h.823q1.645 0 2.355-.411t.71-1.402q0-.953-.729-1.346-.71-.411-2.112-.411zM129.104 52.55q.785-1.327 1.496-2.654.71-1.327 1.308-2.672h3.215q-1.065 2.093-2.206 4.056-1.14 1.962-2.41 3.943v4.954h-2.917V55.26q-1.27-1.981-2.43-3.963-1.14-1.981-2.205-4.074h3.383q.598 1.345 1.29 2.672.691 1.327 1.476 2.655z" style="font-weight:700;font-family:Ubuntu;-inkscape-font-specification:'Ubuntu Bold';stroke-width:1.5576" transform="scale(.98258 1.01773)"/></g><path style="color:#000;fill:#fff;stroke-width:3.4848;-inkscape-stroke:none" d="M37.742 88.02h153.354v31.357H37.742Z"/><path style="color:#000;fill:gray;-inkscape-stroke:none" d="M36 86.277v34.842h156.838V86.277Zm3.484 3.487h149.87v27.87H39.484Z"/><g aria-label="STATE" style="font-size:18.6913px;fill:gray;stroke:#000;stroke-width:9.34563" stroke="none"><path d="M50.807 106.071q.617 0 1.009-.093.411-.112.654-.28.243-.187.337-.43.093-.243.093-.542 0-.636-.598-1.047-.598-.43-2.056-.916-.636-.224-1.271-.505-.636-.299-1.14-.729-.505-.448-.823-1.065-.317-.636-.317-1.533 0-.897.336-1.607.337-.73.953-1.234.617-.504 1.496-.766.878-.28 1.98-.28 1.31 0 2.263.28.953.28 1.57.617l-.841 2.299q-.543-.28-1.215-.486-.655-.225-1.59-.225-1.046 0-1.513.3-.449.28-.449.878 0 .355.168.598.169.243.468.449.317.187.71.355.411.15.897.318 1.01.373 1.757.747.748.355 1.234.841.504.486.747 1.14.243.655.243 1.59 0 1.812-1.27 2.822-1.272.99-3.832.99-.86 0-1.552-.112-.691-.093-1.233-.243-.524-.15-.916-.318-.374-.168-.636-.317l.823-2.318q.58.318 1.42.58.86.242 2.094.242zM67.386 95.343v2.486h-3.907v10.467h-2.915V97.829h-3.907v-2.486zM76.395 108.296q-.206-.673-.467-1.384l-.486-1.42h-5.047q-.243.71-.505 1.42-.243.71-.448 1.384h-3.028q.729-2.094 1.383-3.87.654-1.775 1.271-3.345.636-1.57 1.234-2.972.616-1.42 1.27-2.766h2.786q.635 1.345 1.252 2.766.617 1.402 1.234 2.972.635 1.57 1.29 3.346.654 1.775 1.382 3.869zM72.9 98.277q-.094.28-.28.766-.188.486-.43 1.122-.243.635-.543 1.402-.28.766-.579 1.607h3.682q-.299-.84-.58-1.607-.28-.767-.541-1.402l-.43-1.122q-.187-.486-.3-.766zM89.273 95.343v2.486h-3.906v10.467H82.45V97.829h-3.907v-2.486zM91.142 108.296V95.343h8.748v2.448h-5.832v2.542h5.178v2.393h-5.178v3.121h6.262v2.449z" style="font-weight:700;font-family:Ubuntu;-inkscape-font-specification:'Ubuntu Bold';stroke:none;stroke-width:1.5576" transform="scale(.98258 1.01773)"/></g><path style="color:#000;fill:#fff;stroke-width:3.4848;-inkscape-stroke:none" d="M37.742 136.808h153.354v31.356H37.742Z"/><path style="color:#000;fill:gray;-inkscape-stroke:none" d="M36 135.066v34.84h156.838v-34.84zm3.484 3.485h149.87v27.87H39.484Z"/><g aria-label="CITY" style="font-size:18.6913px;fill:gray;stroke:#000;stroke-width:9.34563" stroke="none"><path d="M53.18 156.494q-3.158 0-4.822-1.757-1.645-1.757-1.645-4.99 0-1.608.505-2.86.505-1.271 1.383-2.13.879-.88 2.094-1.328 1.215-.449 2.635-.449.822 0 1.495.131.673.112 1.178.28.505.15.841.318.336.169.486.262l-.841 2.355q-.598-.318-1.402-.542-.785-.224-1.794-.224-.673 0-1.327.224-.636.224-1.14.73-.487.485-.786 1.27-.299.785-.299 1.907 0 .897.187 1.682.206.766.636 1.327.448.56 1.159.897.71.318 1.72.318.635 0 1.14-.075.504-.075.897-.168.392-.112.691-.243.3-.131.542-.243l.804 2.336q-.617.374-1.738.673-1.122.3-2.598.3zM59.386 143.28h2.916v12.953h-2.916zM74.9 143.28v2.485h-3.907v10.468h-2.916v-10.468h-3.906v-2.486zM82.152 148.607q.785-1.328 1.495-2.655.71-1.327 1.309-2.673h3.215q-1.066 2.094-2.206 4.056-1.14 1.963-2.411 3.944v4.954h-2.916v-4.916q-1.271-1.982-2.43-3.963-1.14-1.981-2.205-4.075h3.383q.598 1.346 1.29 2.673.69 1.327 1.476 2.655z" style="font-weight:700;font-family:Ubuntu;-inkscape-font-specification:'Ubuntu Bold';stroke:none;stroke-width:1.5576" transform="scale(.98258 1.01773)"/></g><path style="color:#000;fill:#fff;stroke-width:3.4848;-inkscape-stroke:none" d="M37.742 185.595h153.354v31.356H37.742Z"/><path style="color:#000;fill:#155724;-inkscape-stroke:none" d="M36 183.854v34.839h156.838v-34.84zm3.484 3.484h149.87v27.871H39.484Z"/><g aria-label="POSTCODE" style="font-size:18.6913px;fill:#155724;stroke:#000;stroke-width:9.34563" stroke="none"><path d="M51.162 191.067q2.897 0 4.448 1.028 1.552 1.01 1.552 3.327 0 2.336-1.57 3.383-1.57 1.028-4.486 1.028h-.916v4.336h-2.916v-12.766q.953-.187 2.019-.261 1.065-.075 1.869-.075zm.187 2.486q-.318 0-.636.019-.299.018-.523.037v3.738h.916q1.514 0 2.28-.411.766-.411.766-1.533 0-.542-.205-.897-.187-.355-.56-.56-.356-.225-.88-.3-.523-.093-1.158-.093zM61.76 197.684q0 .953.224 1.72.243.766.673 1.326.449.542 1.084.841.636.3 1.458.3.804 0 1.44-.3.653-.299 1.083-.84.449-.561.673-1.328.243-.766.243-1.72 0-.953-.243-1.719-.224-.785-.673-1.327-.43-.56-1.084-.86-.635-.299-1.439-.299-.822 0-1.458.318-.635.299-1.084.86-.43.542-.673 1.327-.224.766-.224 1.7zm9.887 0q0 1.663-.504 2.934-.486 1.252-1.346 2.112-.86.841-2.056 1.271-1.178.43-2.542.43-1.327 0-2.505-.43-1.177-.43-2.056-1.27-.878-.86-1.383-2.113-.505-1.27-.505-2.934 0-1.664.524-2.916.523-1.271 1.402-2.131.897-.86 2.056-1.29 1.177-.43 2.467-.43 1.327 0 2.505.43 1.177.43 2.056 1.29.878.86 1.383 2.13.504 1.253.504 2.917zM77.61 201.945q.617 0 1.01-.093.41-.112.654-.28.243-.187.336-.43.093-.243.093-.543 0-.635-.598-1.046-.598-.43-2.056-.916-.635-.224-1.27-.505-.636-.299-1.14-.729-.506-.448-.823-1.065-.318-.636-.318-1.533 0-.897.336-1.607.337-.73.954-1.234.616-.505 1.495-.766.878-.28 1.981-.28 1.309 0 2.262.28.953.28 1.57.617l-.841 2.299q-.542-.28-1.215-.486-.654-.225-1.589-.225-1.047 0-1.514.3-.448.28-.448.878 0 .355.168.598t.467.449q.318.187.71.355.412.15.897.317 1.01.374 1.757.748.748.355 1.234.841.505.486.748 1.14.243.655.243 1.59 0 1.812-1.271 2.822-1.271.99-3.832.99-.86 0-1.551-.112-.692-.093-1.234-.243-.523-.15-.916-.318-.374-.168-.635-.317l.822-2.318q.58.318 1.42.58.86.242 2.094.242zM94.19 191.216v2.486h-3.907v10.467h-2.916v-10.467H83.46v-2.486zM101.535 204.431q-3.159 0-4.823-1.757-1.644-1.757-1.644-4.99 0-1.608.504-2.86.505-1.271 1.383-2.131.879-.878 2.094-1.327 1.215-.449 2.635-.449.823 0 1.496.131.673.112 1.177.28.505.15.841.318.337.169.486.262l-.84 2.355q-.599-.318-1.403-.542-.785-.224-1.794-.224-.673 0-1.327.224-.636.224-1.14.729-.486.486-.785 1.271-.3.785-.3 1.907 0 .897.188 1.682.205.766.635 1.327.449.56 1.159.897.71.318 1.72.318.635 0 1.14-.075.504-.075.897-.168.392-.112.691-.243.3-.131.542-.243l.804 2.336q-.617.374-1.738.673-1.122.3-2.598.3zM109.722 197.684q0 .953.224 1.72.243.766.673 1.326.448.542 1.084.841.635.3 1.458.3.803 0 1.439-.3.654-.299 1.084-.84.449-.561.673-1.328.243-.766.243-1.72 0-.953-.243-1.719-.224-.785-.673-1.327-.43-.56-1.084-.86-.636-.299-1.44-.299-.822 0-1.457.318-.636.299-1.084.86-.43.542-.673 1.327-.224.766-.224 1.7zm9.887 0q0 1.663-.504 2.934-.486 1.252-1.346 2.112-.86.841-2.056 1.271-1.178.43-2.542.43-1.327 0-2.505-.43-1.177-.43-2.056-1.27-.878-.86-1.383-2.113-.505-1.27-.505-2.934 0-1.664.524-2.916.523-1.271 1.401-2.131.898-.86 2.056-1.29 1.178-.43 2.468-.43 1.327 0 2.504.43 1.178.43 2.056 1.29.879.86 1.384 2.13.504 1.253.504 2.917zM124.955 201.796q.206.018.467.037h.654q2.187 0 3.234-1.103 1.065-1.102 1.065-3.046 0-2.038-1.009-3.084-1.01-1.047-3.196-1.047-.3 0-.617.019-.318 0-.598.037zm8.43-4.112q0 1.682-.524 2.934-.523 1.252-1.495 2.075-.953.822-2.336 1.233-1.384.412-3.103.412-.785 0-1.832-.075-1.047-.056-2.056-.262v-12.616q1.01-.187 2.094-.243 1.102-.075 1.887-.075 1.664 0 3.01.374 1.364.373 2.336 1.177.972.804 1.495 2.056.524 1.253.524 3.01zM135.815 204.17v-12.954h8.747v2.449h-5.832v2.542h5.178v2.392h-5.178v3.122h6.262v2.448z" style="font-weight:700;font-family:Ubuntu;-inkscape-font-specification:'Ubuntu Bold';stroke:none;stroke-width:1.5576" transform="scale(.98258 1.01773)"/></g><g><path style="color:#000;fill:#155724;stroke-width:.8712;-inkscape-stroke:none" d="m201.96 201.709 1.742-1.743 4.356 4.356 9.583-9.583 1.743 1.743-11.326 11.325z"/><path style="color:#000;fill:#155724;-inkscape-stroke:none" d="m217.64 194.123-9.581 9.584-4.358-4.357-2.357 2.359.308.309 6.407 6.406L220 196.482Zm0 1.232 1.13 1.125-10.711 10.711-5.483-5.482 1.127-1.127 4.356 4.356z"/></g><g><path style="color:#000;fill:gray;stroke-width:.8712;-inkscape-stroke:none" d="m210.672 102.468-6.16-6.161-1.233 1.232 6.16 6.16-6.16 6.16 1.232 1.232 6.16-6.16 6.16 6.16 1.233-1.232-6.16-6.16 6.16-6.16-1.232-1.232zm0 48.787-6.16-6.161-1.233 1.232 6.16 6.16-6.16 6.16 1.232 1.232 6.16-6.16 6.16 6.16 1.233-1.232-6.16-6.16 6.16-6.16-1.232-1.232zm0-97.76-6.16-6.161-1.233 1.232 6.16 6.16-6.16 6.16 1.232 1.232 6.16-6.16 6.16 6.16 1.233-1.232-6.16-6.16 6.16-6.16-1.232-1.232z"/><path style="color:#000;fill:gray;-inkscape-stroke:none" d="m204.512 46.719-1.848 1.847 6.16 6.16-6.16 6.16 1.848 1.848 6.16-6.16 6.16 6.16 1.848-1.847-6.16-6.16 6.16-6.16-1.848-1.848-6.16 6.158zm0 1.232 6.16 6.158.308-.306 5.852-5.852.615.615-6.16 6.16 6.16 6.16-.615.616-6.16-6.16-6.16 6.16-.617-.615 6.162-6.16-6.162-6.16zm0 47.74-1.848 1.848 6.16 6.16-6.16 6.16 1.848 1.848 6.16-6.16 6.16 6.16 1.848-1.848-6.16-6.16 6.16-6.16-1.848-1.848-6.16 6.16zm0 1.233 6.16 6.16.308-.309 5.852-5.851.615.615-6.16 6.16 6.16 6.16-.615.616-6.16-6.159-6.16 6.159-.617-.616 6.162-6.16-6.162-6.16zm0 47.555-1.848 1.847 6.16 6.16-6.16 6.16 1.848 1.848 6.16-6.16 6.16 6.16 1.848-1.848-6.16-6.16 6.16-6.16-1.848-1.847-6.16 6.16zm0 1.232 6.16 6.16.308-.309 5.852-5.851.615.615-6.16 6.16 6.16 6.16-.615.616-6.16-6.158-6.16 6.158-.617-.616 6.162-6.16-6.162-6.16z"/></g></svg>